<svg xmlns="http://www.w3.org/2000/svg" width="38" height="38" fill="none" viewBox="0 0 38 38"><g clip-path="url(#clip0_98_3085)"><path fill="#8F98A9" d="M30.538 18.542v5.27c0 .56-.11.71-.645.863-3.466 1.022-6.932 2.045-10.399 3.07-.29.089-.599.087-.887-.005a1976.346 1976.346 0 0 0-10.4-3.07c-.52-.153-.651-.314-.651-.824V13.423c0-.692.08-.795.717-1.014 3.462-1.2 6.923-2.401 10.384-3.605a1.14 1.14 0 0 1 .803 0c3.483 1.217 6.968 2.426 10.454 3.628.536.185.628.317.628.884l-.004 5.226Zm-10.872 7.886c3.183-.943 6.309-1.872 9.44-2.79.223-.065.22-.19.22-.361 0-3.008.001-6.015.005-9.02 0-.304-.083-.315-.338-.232-3.012.966-6.023 1.925-9.035 2.876-.244.077-.298.188-.297.424.008 2.236 0 4.473 0 6.71l.005 2.393Zm-10.9-12.516v9.445c0 .242.15.246.305.293 2.595.768 5.19 1.538 7.787 2.31.522.155 1.046.305 1.592.459v-9.184c0-.226-.116-.271-.282-.323-1.044-.33-2.087-.666-3.13-1l-6.271-2Zm1.369-.868c.075.038.151.072.23.101l8.457 2.701a.786.786 0 0 0 .513-.017c2.052-.66 4.103-1.314 6.153-1.964l2.464-.784c-.048-.043-.062-.064-.08-.07l-8.636-3.003a.517.517 0 0 0-.366.006c-2.9 1.009-5.802 2.014-8.733 3.03h-.002Z"/><path fill="#8F98A9" d="M32.085 29.059c-.295 0-.608.007-.913 0-.47-.012-.742-.257-.727-.64.015-.383.273-.571.742-.573h2.047c.507 0 .71.195.717.709.015.608.017 1.216.015 1.82 0 .496-.179.738-.544.77-.364.03-.568-.15-.679-.648-.008-.037-.02-.071-.041-.146a16.749 16.749 0 0 1-2.007 1.973c-3.491 2.846-7.5 4.017-11.958 3.589-4.347-.416-8.09-2.176-11.125-5.318-3.47-3.592-4.904-7.942-4.56-12.901.172-2.424.873-4.78 2.054-6.903.101-.192.212-.381.442-.438a.584.584 0 0 1 .646.203.594.594 0 0 1 .04.71c-.456.813-.84 1.665-1.147 2.545A15.608 15.608 0 0 0 14.3 33.639c2.337.89 4.742 1.317 7.233 1.114 4.287-.335 7.787-2.196 10.506-5.527.024-.03.046-.06.066-.092.004-.004-.005-.019-.02-.075ZM9.753 7.041c.22 0 .43-.007.638 0 .432.017.715.278.7.634-.016.355-.28.574-.71.577-.709.006-1.418.006-2.128 0-.45 0-.69-.219-.701-.665-.019-.67-.017-1.34 0-2.01.009-.386.27-.626.62-.62.352.007.574.249.588.65.006.17 0 .342 0 .565.48-.377.903-.732 1.35-1.054 3.123-2.255 6.627-3.232 10.461-3.11 4.662.15 8.553 1.992 11.714 5.372 2.736 2.926 4.302 6.408 4.647 10.407.201 2.26-.098 4.537-.876 6.669-.15.414-.432.59-.767.49-.375-.113-.525-.438-.38-.884.586-1.803.9-3.648.847-5.547-.11-3.977-1.585-7.39-4.314-10.256-2.602-2.736-5.788-4.414-9.526-4.931-4.564-.629-8.6.668-12.127 3.607-.009.016-.015.044-.036.106Z"/><path fill="#FFD232" d="M28.635 22.674a.55.55 0 0 1-.39.549 150.68 150.68 0 0 1-3.054.982c-.319.101-.538-.09-.652-.373a.576.576 0 0 1 .36-.77c.446-.168.905-.303 1.36-.455.537-.177 1.072-.365 1.615-.524a.582.582 0 0 1 .76.59ZM27.993 20.212c.329.037.546.156.624.43.085.298.016.59-.28.71a20.31 20.31 0 0 1-2.542.833c-.288.073-.507-.107-.615-.387-.108-.28-.043-.55.198-.666.85-.413 1.776-.616 2.615-.92ZM10.941 17.224c0-.366-.01-.732 0-1.098.016-.46.355-.73.796-.596 1.372.415 2.736.849 4.104 1.283a.58.58 0 0 1 .435.596c0 .731.01 1.464 0 2.196-.009.456-.36.723-.8.59-1.375-.41-2.743-.842-4.11-1.271a.575.575 0 0 1-.425-.601v-1.099Zm4.126 1.115c0-.499 0-.499-.485-.652l-1.834-.578c-.595-.186-.582-.185-.6.431-.008.266.06.396.333.47.715.196 1.419.43 2.128.65.458.145.458.146.458-.318v-.003Z"/></g><defs><clipPath id="clip0_98_3085"><path fill="#fff" d="M3 2h34v34H3z"/></clipPath></defs></svg>