<svg xmlns="http://www.w3.org/2000/svg" width="34" height="34" fill="none" viewBox="0 0 34 34"><path stroke="#8F98A9" stroke-miterlimit="10" stroke-width="1.5" d="M16.382 28.848c6.627 0 12-5.535 12-12.363 0-6.828-5.373-12.364-12-12.364-6.628 0-12 5.536-12 12.364 0 6.828 5.372 12.363 12 12.363Z"/><path stroke="#8F98A9" stroke-linecap="round" stroke-linejoin="round" stroke-width="1.5" d="M5.069 12.363h22.625M5.069 20.606h22.625"/><path stroke="#8F98A9" stroke-miterlimit="10" stroke-width="1.5" d="M16.381 28.514c2.762 0 5-5.385 5-12.029 0-6.643-2.238-12.028-5-12.028-2.76 0-5 5.385-5 12.028 0 6.644 2.24 12.029 5 12.029Z"/><path fill="#8F98A9" d="M29.083 26.85c-.295 0-.608.007-.912 0-.47-.012-.743-.264-.728-.659.015-.394.274-.589.742-.59h2.047c.507 0 .71.2.718.73.014.627.016 1.253.014 1.874 0 .512-.179.762-.543.794-.365.032-.569-.153-.68-.667-.008-.038-.02-.073-.041-.15a16.993 16.993 0 0 1-2.007 2.032c-3.491 2.932-7.5 4.138-11.958 3.698-4.347-.428-8.09-2.242-11.125-5.479-3.47-3.7-4.904-8.183-4.56-13.292a17.533 17.533 0 0 1 2.054-7.112c.101-.197.212-.393.442-.451a.567.567 0 0 1 .355-.002.584.584 0 0 1 .291.21.622.622 0 0 1 .04.732c-.456.838-.84 1.716-1.147 2.623a16.529 16.529 0 0 0 .554 12.153c1.723 3.82 4.832 6.791 8.659 8.275 2.337.917 4.742 1.357 7.233 1.148 4.287-.345 7.787-2.262 10.506-5.695.024-.03.046-.062.066-.095.004-.004-.005-.018-.02-.077Z"/><path fill="#FFD232" d="M29.815 28.678c-.727.732-1.422 1.428-2.108 2.133-.063.066-.089.195-.091.295-.01.43-.009.861-.003 1.292.002.246-.088.426-.31.525-.222.1-.399.004-.55-.152a828.816 828.816 0 0 1-2.572-2.652c-.154-.16-.236-.345-.14-.57.096-.226.274-.301.493-.301.426-.003.853.005 1.279-.006a.443.443 0 0 0 .283-.098c.698-.692 1.39-1.392 2.126-2.134-.15-.06-.223-.092-.3-.115l-3.204-.954c-.49-.146-.727-.461-.676-.897.05-.436.387-.716.89-.716 1.83 0 3.662-.005 5.49.004a.62.62 0 0 0 .508-.217c.323-.345.661-.677.997-1.009.324-.32.71-.48 1.162-.431a1.01 1.01 0 0 1 .88 1.265c-.09.333-.249.642-.465.906-.3.377-.66.703-1.009 1.037a.58.58 0 0 0-.185.472c.006 1.903.004 3.805.004 5.709 0 .54-.198.831-.617.896-.404.06-.746-.201-.882-.69a1095.55 1095.55 0 0 1-.94-3.403c-.012-.048-.029-.093-.06-.19Z"/></svg>