<svg xmlns="http://www.w3.org/2000/svg" xml:space="preserve" id="Layer_1" width="100%" x="0" y="0" version="1.1" viewBox="0 0 366 354"><path fill="#FFF" stroke="none" d="M203 355H1.035V1.096H366.84V355H203M181.44 42.916c-7.518 3.75-15.836 6.45-22.406 11.449-19.932 15.167-29.936 35.382-26.268 60.815 6.964 48.295 63.668 72.694 103.483 46.696 22.695-14.819 34.552-35.36 31.698-63.006-2.027-19.64-11.835-35.055-27.817-46.19-17.579-12.248-37.111-15.326-58.69-9.764M83.75 62.822c-3.192-4.14-5.609-9.45-9.733-12.182-9.24-6.121-19.286-11.04-29.094-16.279-3.453-1.845-7.118-1.798-8.915 2.263-1.696 3.83.314 6.471 3.917 8.337 8.549 4.425 17.2 8.719 25.369 13.777 3.126 1.936 6.257 5.439 7.322 8.868 5.803 18.692 10.933 37.593 16.35 56.405a56129.157 56129.157 0 0 0 30.112 104.266c3.054 10.528 9.527 18.673 19.805 22.265 7.354 2.57 15.469 3.848 23.285 4.04 21.48.53 42.98.183 64.473.183 7.274 0 14.55.105 21.822-.027 8.137-.148 16.285-.295 24.396-.88 3.483-.252 5.628-3.3 4.533-6.395-.733-2.074-3.829-4.63-5.935-4.693-16.436-.49-32.888-.482-49.336-.522-21.992-.054-43.985.008-65.977-.021-15.695-.02-24.837-8.44-26.606-24.987 1.903-.159 3.796-.453 5.689-.454 38.32-.027 76.64.017 114.96-.05 8.25-.014 16.114-1.748 23.351-6.017 10.162-5.993 14.96-15.514 18.283-26.306 8.585-27.875 17.365-55.69 26.178-83.493 1.238-3.905-.242-6.192-3.603-7.464-3.332-1.26-5.946.23-7.386 3.278-1.27 2.689-2.182 5.563-3.082 8.41-8.47 26.784-16.82 53.607-25.384 80.362-3.786 11.829-13.045 18.649-25.494 18.683-41.318.113-82.637.024-123.956.086-2.918.005-4.387-.795-5.271-3.859-13.177-45.649-26.502-91.255-40.074-137.594m66.257 206.347c-9.648 3.864-15.105 10.818-16.098 21.302-1.305 13.788 8.773 24.576 24.551 26.06 11.437 1.075 24.94-10.88 25.537-22.607.89-17.502-15.53-29.853-33.99-24.755m71.202 13.689c-4.376 10.983-1.704 20.941 7.623 28.41 7.637 6.115 20.635 6.835 28.46 1.575 9.786-6.577 14.022-17.289 10.895-27.55-2.633-8.642-11.886-16.604-20.09-17.285-12.86-1.07-21.173 3.381-26.888 14.85z" opacity="1"/><path fill="#FFD233" stroke="none" d="M181.83 42.785c21.189-5.43 40.721-2.353 58.3 9.895 15.982 11.135 25.79 26.55 27.817 46.19 2.854 27.646-9.003 48.187-31.698 63.006-39.815 25.998-96.519 1.599-103.483-46.696-3.668-25.433 6.336-45.648 26.268-60.815 6.57-4.999 14.888-7.699 22.795-11.58m9.349 88.873c3.397-1.899 7.476-3.136 10.073-5.811 10.4-10.713 20.362-21.85 30.436-32.878 3.125-3.42 3.185-7.32.369-10.216-2.587-2.66-7.263-2.793-10.301.287-5.356 5.43-10.346 11.217-15.57 16.779-5.516 5.873-11.127 11.657-16.889 17.681-3.857-3.683-7.116-6.986-10.587-10.05-3.25-2.87-7.467-2.592-10.226.45-3.055 3.368-2.46 6.701.495 9.689 3.27 3.305 6.416 6.895 10.225 9.455 3.281 2.204 7.418 3.135 11.975 4.614z" opacity="1"/><path fill="#949DAD" stroke="none" d="M83.89 63.183c13.43 45.978 26.756 91.584 39.933 137.233.884 3.064 2.353 3.864 5.27 3.86 41.32-.063 82.639.026 123.957-.087 12.45-.034 21.708-6.854 25.494-18.683 8.565-26.755 16.915-53.578 25.384-80.363.9-2.846 1.811-5.72 3.082-8.41 1.44-3.048 4.054-4.537 7.386-3.277 3.361 1.272 4.841 3.559 3.603 7.464-8.813 27.803-17.593 55.618-26.178 83.493-3.324 10.792-8.121 20.313-18.283 26.306-7.237 4.269-15.101 6.003-23.351 6.017-38.32.067-76.64.023-114.96.05-1.893.001-3.786.295-5.689.454 1.769 16.547 10.911 24.966 26.606 24.987 21.992.029 43.985-.033 65.977.02 16.448.041 32.9.033 49.336.523 2.106.063 5.202 2.619 5.935 4.693 1.095 3.096-1.05 6.143-4.533 6.394-8.111.586-16.26.733-24.396.88-7.271.133-14.548.028-21.822.028-21.492 0-42.993.347-64.473-.182-7.816-.193-15.931-1.47-23.285-4.041-10.278-3.592-16.751-11.737-19.805-22.265A56129.157 56129.157 0 0 1 88.967 124.01C83.549 105.2 78.419 86.298 72.616 67.606c-1.065-3.43-4.196-6.932-7.322-8.868-8.169-5.058-16.82-9.352-25.369-13.777-3.603-1.866-5.613-4.507-3.917-8.337 1.797-4.06 5.462-4.108 8.915-2.263 9.808 5.24 19.855 10.158 29.094 16.28 4.124 2.732 6.54 8.041 9.873 12.542z" opacity="1"/><path fill="#9099AA" stroke="none" d="M150.398 269.058c18.067-4.987 34.488 7.364 33.598 24.866-.596 11.728-14.1 23.682-25.537 22.606-15.778-1.483-25.856-12.271-24.55-26.06.992-10.483 6.449-17.437 16.49-21.412zM221.4 282.527c5.523-11.138 13.835-15.588 26.696-14.52 8.204.682 17.457 8.644 20.09 17.286 3.127 10.261-1.11 20.973-10.895 27.55-7.825 5.26-20.823 4.54-28.46-1.575-9.327-7.469-12-17.427-7.431-28.74z" opacity="1"/><path fill="#FEFDFA" stroke="none" d="M190.779 131.665c-4.158-1.486-8.295-2.417-11.576-4.621-3.809-2.56-6.955-6.15-10.225-9.455-2.954-2.988-3.55-6.321-.495-9.69 2.759-3.041 6.977-3.319 10.226-.45 3.47 3.065 6.73 6.368 10.587 10.051 5.762-6.024 11.373-11.808 16.888-17.681 5.225-5.562 10.215-11.35 15.57-16.78 3.039-3.08 7.715-2.946 10.302-.286 2.816 2.896 2.756 6.795-.37 10.216-10.073 11.027-20.036 22.165-30.435 32.878-2.597 2.675-6.676 3.912-10.472 5.818z" opacity="1"/></svg>