<?xml version="1.0" encoding="UTF-8"?><svg width="512" height="512" version="1.1" viewBox="0 0 512 512" xmlns="http://www.w3.org/2000/svg" xmlns:xlink="http://www.w3.org/1999/xlink"><!--Generated by IJSVG (https://github.com/iconjar/IJSVG)--><g transform="scale(20.48)"><path fill="#000" d="M14.828,12.332c1.296,-0.791 2.172,-2.205 2.172,-3.832c0,-2.481 -2.019,-4.5 -4.5,-4.5c-2.481,0 -4.5,2.019 -4.5,4.5c0,1.627 0.876,3.041 2.172,3.832c-3.557,1.016 -6.172,4.289 -6.172,8.168v0.5h17v-0.5c0,-3.879 -2.615,-7.152 -6.172,-8.168Zm-5.828,-3.832c0,-1.93 1.57,-3.5 3.5,-3.5c1.93,0 3.5,1.57 3.5,3.5c0,1.93 -1.57,3.5 -3.5,3.5c-1.93,0 -3.5,-1.57 -3.5,-3.5Zm-3.983,11.5c0.258,-3.903 3.516,-7 7.483,-7c3.967,0 7.225,3.097 7.483,7h-14.966Z"></path></g></svg>